<?xml version="1.0" encoding="UTF-8"?>
<svg width="46px" height="42px" viewBox="0 0 46 42" version="1.1" xmlns="http://www.w3.org/2000/svg" xmlns:xlink="http://www.w3.org/1999/xlink">
    <!-- Generator: Sketch 41 (35326) - http://www.bohemiancoding.com/sketch -->
    <title>Theatre Mask</title>
    <desc>Created with Sketch.</desc>
    <defs>
        <filter x="-50%" y="-50%" width="200%" height="200%" filterUnits="objectBoundingBox" id="filter-1">
            <feOffset dx="0" dy="2" in="SourceAlpha" result="shadowOffsetOuter1"></feOffset>
            <feGaussianBlur stdDeviation="1.5" in="shadowOffsetOuter1" result="shadowBlurOuter1"></feGaussianBlur>
            <feColorMatrix values="0 0 0 0 0   0 0 0 0 0   0 0 0 0 0  0 0 0 0.25 0" type="matrix" in="shadowBlurOuter1" result="shadowMatrixOuter1"></feColorMatrix>
            <feMerge>
                <feMergeNode in="shadowMatrixOuter1"></feMergeNode>
                <feMergeNode in="SourceGraphic"></feMergeNode>
            </feMerge>
        </filter>
    </defs>
    <g id="Page-1" stroke="none" stroke-width="1" fill="none" fill-rule="evenodd">
        <g id="29---MVP" transform="translate(-444.000000, -1743.000000)">
            <g id="Implementation" transform="translate(0.000000, 1343.000000)">
                <g id="Row-of-Cards" transform="translate(359.000000, 33.000000)">
                    <g id="Card" transform="translate(0.000000, 340.000000)">
                        <g id="Radar" filter="url(#filter-1)" transform="translate(62.000000, 0.000000)">
                            <g id="Theatre-Mask" transform="translate(26.000000, 27.000000)">
                                <g id="Group">
                                    <path d="M23.7,12.5 C25,16.2 21,24.6 17.4,25.9 L9,2.5 C16.3,-0.1 19.8,1.4 19.8,1.4 L23.7,12.5 L23.7,12.5 Z" id="Shape" fill="#FF8F00"></path>
                                    <path d="M4,19.7 C5.3,23.4 13.8,27.3 17.4,26 L9,2.5 C1.7,5.1 0,8.5 0,8.5 L4,19.7 L4,19.7 Z" id="Shape" fill="#FFA000"></path>
                                    <g transform="translate(6.000000, 7.000000)" id="Shape" fill="#693D14">
                                        <path d="M12.9,3.8 C12.9,3.8 10.7,2.2 7.7,2.9 C7.7,2.9 8,0.8 9.7,0.8 C12.1,0.7 12.9,3.8 12.9,3.8 L12.9,3.8 Z"></path>
                                        <path d="M8.5,10.7 C11.9,9.5 14.1,10.7 14.1,10.7 C14.1,10.7 11.3,7.1 7.7,8.4 C4.1,9.7 4.2,14.2 4.2,14.2 C4.2,14.2 5.1,11.9 8.5,10.7 L8.5,10.7 Z"></path>
                                        <path d="M0.6,8.2 C0.6,8.2 1.2,5.5 4,4.2 C4,4.2 2.4,2.8 1.1,3.9 C-0.7,5.3 0.6,8.2 0.6,8.2 L0.6,8.2 Z"></path>
                                    </g>
                                    <path d="M36.4,28.9 C35.2,33.1 26.2,38 22.1,36.8 L29.7,10.4 C37.9,12.8 40,16.4 40,16.4 L36.4,28.9 L36.4,28.9 Z" id="Shape" fill="#FFB300"></path>
                                    <path d="M14.2,22.5 C13,26.7 18,35.7 22.1,36.8 L29.7,10.4 C21.5,8.1 17.8,10 17.8,10 L14.2,22.5 L14.2,22.5 Z" id="Shape" fill="#FFC107"></path>
                                    <g transform="translate(19.000000, 16.000000)" id="Shape" fill="#694A14">
                                        <path d="M15.3,7.1 C15.3,7.1 13.8,5 10,4.5 C10,4.5 11.5,3 13.3,3.5 C15.4,4.1 15.3,7.1 15.3,7.1 L15.3,7.1 Z"></path>
                                        <path d="M0.1,2.7 C0.1,2.7 2.5,1.7 5.9,3.3 C5.9,3.3 5.4,1.2 3.6,0.7 C1.6,0.1 0.1,2.7 0.1,2.7 L0.1,2.7 Z"></path>
                                        <path d="M5.9,11 C1.6,9.8 0.3,6.9 0.3,6.9 C0.3,6.9 0.5,12.5 5.1,13.8 C9.7,15.1 12.8,10.5 12.8,10.5 C12.8,10.5 10.2,12.3 5.9,11 L5.9,11 Z"></path>
                                    </g>
                                </g>
                            </g>
                        </g>
                    </g>
                </g>
            </g>
        </g>
    </g>
</svg>