<?xml version="1.0" encoding="UTF-8"?>
<svg width="45px" height="45px" viewBox="0 0 45 45" version="1.1" xmlns="http://www.w3.org/2000/svg" xmlns:xlink="http://www.w3.org/1999/xlink">
    <!-- Generator: Sketch 41 (35326) - http://www.bohemiancoding.com/sketch -->
    <title>Radar</title>
    <desc>Created with Sketch.</desc>
    <defs>
        <filter x="-50%" y="-50%" width="200%" height="200%" filterUnits="objectBoundingBox" id="filter-1">
            <feOffset dx="0" dy="2" in="SourceAlpha" result="shadowOffsetOuter1"></feOffset>
            <feGaussianBlur stdDeviation="1.5" in="shadowOffsetOuter1" result="shadowBlurOuter1"></feGaussianBlur>
            <feColorMatrix values="0 0 0 0 0   0 0 0 0 0   0 0 0 0 0  0 0 0 0.25 0" type="matrix" in="shadowBlurOuter1" result="shadowMatrixOuter1"></feColorMatrix>
            <feMerge>
                <feMergeNode in="shadowMatrixOuter1"></feMergeNode>
                <feMergeNode in="SourceGraphic"></feMergeNode>
            </feMerge>
        </filter>
    </defs>
    <g id="Page-1" stroke="none" stroke-width="1" fill="none" fill-rule="evenodd">
        <g id="29---MVP" transform="translate(-977.000000, -238.000000)">
            <g id="Getting-Started" transform="translate(0.000000, 178.000000)">
                <g id="Row-of-Cards" transform="translate(364.000000, 35.000000)">
                    <g id="Card" transform="translate(528.000000, 0.000000)">
                        <g id="Radar" filter="url(#filter-1)" transform="translate(62.000000, 0.000000)">
                            <g transform="translate(26.000000, 26.000000)" id="Group">
                                <g>
                                    <circle id="Oval" fill="#33691E" cx="19.5" cy="19.5" r="19.5"></circle>
                                    <path d="M39,18.9868421 L34.3815789,18.9868421 C34.0736842,11.1868421 27.8131579,4.92631579 20.0131579,4.61842105 L20.0131579,0 L18.9868421,0 L18.9868421,4.61842105 C11.1868421,4.92631579 4.92631579,11.1868421 4.61842105,18.9868421 L0,18.9868421 L0,20.0131579 L4.61842105,20.0131579 C4.92631579,27.8131579 11.1868421,34.0736842 18.9868421,34.3815789 L18.9868421,39 L20.0131579,39 L20.0131579,34.3815789 C27.8131579,34.0736842 34.0736842,27.8131579 34.3815789,20.0131579 L39,20.0131579 L39,18.9868421 L39,18.9868421 Z M33.3552632,18.9868421 L27.1973684,18.9868421 C26.9921053,15.1894737 23.9131579,12.1105263 20.0131579,11.8026316 L20.0131579,5.64473684 C27.1973684,5.95263158 33.0473684,11.8026316 33.3552632,18.9868421 L33.3552632,18.9868421 Z M18.9868421,18.9868421 L12.8289474,18.9868421 C13.0342105,15.7026316 15.7026316,13.1368421 18.9868421,12.8289474 L18.9868421,18.9868421 L18.9868421,18.9868421 Z M18.9868421,20.0131579 L18.9868421,26.1710526 C15.7026316,25.9657895 13.1368421,23.2973684 12.8289474,20.0131579 L18.9868421,20.0131579 L18.9868421,20.0131579 Z M20.0131579,20.0131579 L26.1710526,20.0131579 C25.9657895,23.2973684 23.2973684,25.8631579 20.0131579,26.1710526 L20.0131579,20.0131579 L20.0131579,20.0131579 Z M20.0131579,18.9868421 L20.0131579,12.8289474 C23.2973684,13.0342105 25.8631579,15.7026316 26.1710526,18.9868421 L20.0131579,18.9868421 L20.0131579,18.9868421 Z M18.9868421,5.64473684 L18.9868421,11.8026316 C15.1894737,12.0078947 12.1105263,15.0868421 11.8026316,18.9868421 L5.64473684,18.9868421 C5.95263158,11.8026316 11.8026316,5.95263158 18.9868421,5.64473684 L18.9868421,5.64473684 Z M5.64473684,20.0131579 L11.8026316,20.0131579 C12.0078947,23.8105263 15.0868421,26.8894737 18.9868421,27.1973684 L18.9868421,33.3552632 C11.8026316,33.0473684 5.95263158,27.1973684 5.64473684,20.0131579 L5.64473684,20.0131579 Z M20.0131579,33.3552632 L20.0131579,27.1973684 C23.8105263,26.9921053 26.8894737,23.9131579 27.1973684,20.0131579 L33.3552632,20.0131579 C33.0473684,27.1973684 27.1973684,33.0473684 20.0131579,33.3552632 L20.0131579,33.3552632 Z" id="Shape" fill="#689F38"></path>
                                    <circle id="Oval" fill="#C6FF00" cx="19.5" cy="19.5" r="2.05263158"></circle>
                                    <ellipse id="Oval" fill="#C6FF00" cx="9.03157895" cy="29.7631579" rx="2.05263158" ry="2.05263158"></ellipse>
                                    <ellipse id="Oval" fill="#C6FF00" cx="9.03157895" cy="9.75" rx="2.05263158" ry="2.05263158"></ellipse>
                                    <ellipse id="Oval" fill="#C6FF00" cx="28.7368421" cy="30.7894737" rx="1.02631579" ry="1.02631579"></ellipse>
                                    <path d="M19.5,19.5 L32.5342105,6.46578947" id="Shape" stroke="#C6FF00" stroke-width="2"></path>
                                </g>
                            </g>
                        </g>
                    </g>
                </g>
            </g>
        </g>
    </g>
</svg>