<?xml version="1.0" encoding="UTF-8"?>
<svg width="44px" height="44px" viewBox="0 0 44 44" version="1.1" xmlns="http://www.w3.org/2000/svg" xmlns:xlink="http://www.w3.org/1999/xlink">
    <!-- Generator: Sketch 41 (35326) - http://www.bohemiancoding.com/sketch -->
    <title>Playground</title>
    <desc>Created with Sketch.</desc>
    <defs>
        <filter x="-50%" y="-50%" width="200%" height="200%" filterUnits="objectBoundingBox" id="filter-1">
            <feOffset dx="0" dy="2" in="SourceAlpha" result="shadowOffsetOuter1"></feOffset>
            <feGaussianBlur stdDeviation="1.5" in="shadowOffsetOuter1" result="shadowBlurOuter1"></feGaussianBlur>
            <feColorMatrix values="0 0 0 0 0   0 0 0 0 0   0 0 0 0 0  0 0 0 0.25 0" type="matrix" in="shadowBlurOuter1" result="shadowMatrixOuter1"></feColorMatrix>
            <feMerge>
                <feMergeNode in="shadowMatrixOuter1"></feMergeNode>
                <feMergeNode in="SourceGraphic"></feMergeNode>
            </feMerge>
        </filter>
    </defs>
    <g id="Page-1" stroke="none" stroke-width="1" fill="none" fill-rule="evenodd">
        <g id="29---MVP" transform="translate(-973.000000, -1402.000000)">
            <g id="Implementation" transform="translate(0.000000, 1343.000000)">
                <g id="Row-of-Cards" transform="translate(359.000000, 33.000000)">
                    <g id="Card" transform="translate(528.000000, 0.000000)">
                        <g id="Radar" filter="url(#filter-1)" transform="translate(62.000000, 0.000000)">
                            <g id="Playground" transform="translate(27.000000, 27.000000)">
                                <g id="Group">
                                    <g transform="translate(18.000000, 22.000000)" id="Shape" fill="#EF6C00">
                                        <polygon points="2 2 0 0 0 16 2 16"></polygon>
                                        <polygon points="8 8 6 6 6 16 8 16"></polygon>
                                    </g>
                                    <g transform="translate(0.000000, 19.000000)" id="Rectangle-path" fill="#009688">
                                        <rect x="0" y="0" width="2" height="19"></rect>
                                        <rect x="12" y="0" width="2" height="19"></rect>
                                    </g>
                                    <g transform="translate(3.000000, 23.000000)" id="Rectangle-path" fill="#00796B">
                                        <rect x="0" y="0" width="9" height="2"></rect>
                                        <rect x="0" y="4" width="9" height="2"></rect>
                                        <rect x="0" y="8" width="9" height="2"></rect>
                                        <rect x="0" y="12" width="9" height="2"></rect>
                                    </g>
                                    <g transform="translate(2.000000, 23.000000)" id="Rectangle-path" fill="#004D40">
                                        <rect x="0" y="0" width="1" height="2"></rect>
                                        <rect x="0" y="4" width="1" height="2"></rect>
                                        <rect x="0" y="8" width="1" height="2"></rect>
                                        <rect x="0" y="12" width="1" height="2"></rect>
                                    </g>
                                    <polygon id="Shape" fill="#F44336" points="14 7 0 7 7 0"></polygon>
                                    <polygon id="Shape" fill="#2196F3" points="0 7 0 21 14 21 14 7"></polygon>
                                    <path d="M7,10 C4.8,10 3,11.8 3,14 C3,16.2 4.8,18 7,18 C9.2,18 11,16.2 11,14 C11,11.8 9.2,10 7,10 L7,10 Z" id="Shape" fill="#0D47A1"></path>
                                    <path d="M38,38 L32,38 L16,21 L14,21 L14,14 L14.8,14 C15.6,14 16.3,14.4 16.6,15.1 L19,20 L32,34 L36,34 C37.1,34 38,34.9 38,36 L38,38 L38,38 Z" id="Shape" fill="#FF9800"></path>
                                </g>
                            </g>
                        </g>
                    </g>
                </g>
            </g>
        </g>
    </g>
</svg>