<?xml version="1.0" encoding="UTF-8"?>
<svg width="42px" height="42px" viewBox="0 0 42 42" version="1.1" xmlns="http://www.w3.org/2000/svg" xmlns:xlink="http://www.w3.org/1999/xlink">
    <!-- Generator: Sketch 41 (35326) - http://www.bohemiancoding.com/sketch -->
    <title>Pie Chart</title>
    <desc>Created with Sketch.</desc>
    <defs>
        <filter x="-50%" y="-50%" width="200%" height="200%" filterUnits="objectBoundingBox" id="filter-1">
            <feOffset dx="0" dy="2" in="SourceAlpha" result="shadowOffsetOuter1"></feOffset>
            <feGaussianBlur stdDeviation="1.5" in="shadowOffsetOuter1" result="shadowBlurOuter1"></feGaussianBlur>
            <feColorMatrix values="0 0 0 0 0   0 0 0 0 0   0 0 0 0 0  0 0 0 0.25 0" type="matrix" in="shadowBlurOuter1" result="shadowMatrixOuter1"></feColorMatrix>
            <feMerge>
                <feMergeNode in="shadowMatrixOuter1"></feMergeNode>
                <feMergeNode in="SourceGraphic"></feMergeNode>
            </feMerge>
        </filter>
    </defs>
    <g id="Page-1" stroke="none" stroke-width="1" fill="none" fill-rule="evenodd">
        <g id="29---MVP" transform="translate(-1238.000000, -1403.000000)">
            <g id="Implementation" transform="translate(0.000000, 1343.000000)">
                <g id="Row-of-Cards" transform="translate(359.000000, 33.000000)">
                    <g id="Card" transform="translate(792.000000, 0.000000)">
                        <g id="Radar" filter="url(#filter-1)" transform="translate(62.000000, 0.000000)">
                            <g id="Pie-Chart" transform="translate(28.000000, 28.000000)">
                                <g id="Group">
                                    <path d="M18,0 C8.1,0 0,8.1 0,18 C0,27.9 8.1,36 18,36 C23.2,36 27.9,33.8 31.1,30.3 L18,18 L18,0 L18,0 Z" id="Shape" fill="#00BCD4"></path>
                                    <path d="M36,18 C36,8.1 27.9,0 18,0 L18,18 L36,18 L36,18 Z" id="Shape" fill="#448AFF"></path>
                                    <path d="M18,18 L31.1,30.3 C34.1,27.1 36,22.8 36,18 L18,18 L18,18 Z" id="Shape" fill="#3F51B5"></path>
                                </g>
                            </g>
                        </g>
                    </g>
                </g>
            </g>
        </g>
    </g>
</svg>