<?xml version="1.0" encoding="UTF-8"?>
<svg width="44px" height="42px" viewBox="0 0 44 42" version="1.1" xmlns="http://www.w3.org/2000/svg" xmlns:xlink="http://www.w3.org/1999/xlink">
    <!-- Generator: Sketch 41 (35326) - http://www.bohemiancoding.com/sketch -->
    <title>Stones</title>
    <desc>Created with Sketch.</desc>
    <defs>
        <filter x="-50%" y="-50%" width="200%" height="200%" filterUnits="objectBoundingBox" id="filter-1">
            <feOffset dx="0" dy="2" in="SourceAlpha" result="shadowOffsetOuter1"></feOffset>
            <feGaussianBlur stdDeviation="1.5" in="shadowOffsetOuter1" result="shadowBlurOuter1"></feGaussianBlur>
            <feColorMatrix values="0 0 0 0 0   0 0 0 0 0   0 0 0 0 0  0 0 0 0.25 0" type="matrix" in="shadowBlurOuter1" result="shadowMatrixOuter1"></feColorMatrix>
            <feMerge>
                <feMergeNode in="shadowMatrixOuter1"></feMergeNode>
                <feMergeNode in="SourceGraphic"></feMergeNode>
            </feMerge>
        </filter>
    </defs>
    <g id="Page-1" stroke="none" stroke-width="1" fill="none" fill-rule="evenodd">
        <g id="29---MVP" transform="translate(-714.000000, -990.000000)">
            <g id="Project-Planning" transform="translate(0.000000, 928.000000)">
                <g id="Card" transform="translate(628.000000, 35.000000)">
                    <g id="Radar" filter="url(#filter-1)" transform="translate(62.000000, 0.000000)">
                        <g id="Stones" transform="translate(27.000000, 28.000000)">
                            <g id="Layer_1">
                                <path d="M38,29.333 C38,25.651 31.15,21 19,21 C6.85,21 0,25.651 0,29.333 C0,33.015 6.85,36 19,36 C31.15,36 38,33.015 38,29.333 L38,29.333 Z" id="Shape" fill="#607D8B"></path>
                                <path d="M36,16.923 C36,13.864 26.864,9 22,9 C13.163,9 6,11.864 6,14.923 C6,17.982 13.181,20.54 22,21.1 C30.776,21.657 36,19.982 36,16.923 L36,16.923 Z" id="Shape" fill="#D7CCC8"></path>
                                <path d="M26,4 C26,1.791 21.971,0 17,0 C12.029,0 8,3.791 8,6 C8,8.209 12.029,9.192 17,9.192 C21.971,9.192 26,6.209 26,4 L26,4 Z" id="Shape" fill="#607D8B"></path>
                            </g>
                        </g>
                    </g>
                </g>
            </g>
        </g>
    </g>
</svg>