<?xml version="1.0" encoding="UTF-8"?>
<svg width="48px" height="46px" viewBox="0 0 48 46" version="1.1" xmlns="http://www.w3.org/2000/svg" xmlns:xlink="http://www.w3.org/1999/xlink">
    <!-- Generator: Sketch 41 (35326) - http://www.bohemiancoding.com/sketch -->
    <title>Christmas Star</title>
    <desc>Created with Sketch.</desc>
    <defs>
        <filter x="-50%" y="-50%" width="200%" height="200%" filterUnits="objectBoundingBox" id="filter-1">
            <feOffset dx="0" dy="2" in="SourceAlpha" result="shadowOffsetOuter1"></feOffset>
            <feGaussianBlur stdDeviation="1.5" in="shadowOffsetOuter1" result="shadowBlurOuter1"></feGaussianBlur>
            <feColorMatrix values="0 0 0 0 0   0 0 0 0 0   0 0 0 0 0  0 0 0 0.25 0" type="matrix" in="shadowBlurOuter1" result="shadowMatrixOuter1"></feColorMatrix>
            <feMerge>
                <feMergeNode in="shadowMatrixOuter1"></feMergeNode>
                <feMergeNode in="SourceGraphic"></feMergeNode>
            </feMerge>
        </filter>
    </defs>
    <g id="Page-1" stroke="none" stroke-width="1" fill="none" fill-rule="evenodd">
        <g id="29---MVP" transform="translate(-448.000000, -2153.000000)">
            <g id="Iteration" transform="translate(0.000000, 2093.000000)">
                <g id="Row-of-Cards" transform="translate(364.000000, 35.000000)">
                    <g id="Card">
                        <g id="Radar" filter="url(#filter-1)" transform="translate(62.000000, 0.000000)">
                            <g id="Christmas-Star" transform="translate(25.000000, 26.000000)">
                                <g id="Group">
                                    <polygon id="Shape" fill="#FFCA28" points="21 0 28 13 42 15 32 25 34 40 21 33 8 40 10 25 0 15 14 13"></polygon>
                                    <g id="Shape" fill="#F9A825">
                                        <polygon points="21 21 28 13 21 0"></polygon>
                                        <polygon points="42 15 21 21 32 25"></polygon>
                                        <polygon points="34 40 21 21 21 33"></polygon>
                                        <polygon points="10 25 8 40 21 21"></polygon>
                                        <polygon points="0 15 21 21 14 13"></polygon>
                                    </g>
                                </g>
                            </g>
                        </g>
                    </g>
                </g>
            </g>
        </g>
    </g>
</svg>