<?xml version="1.0" encoding="UTF-8"?>
<svg width="45px" height="45px" viewBox="0 0 45 45" version="1.1" xmlns="http://www.w3.org/2000/svg" xmlns:xlink="http://www.w3.org/1999/xlink">
    <!-- Generator: Sketch 41 (35326) - http://www.bohemiancoding.com/sketch -->
    <title>Goal</title>
    <desc>Created with Sketch.</desc>
    <defs>
        <filter x="-50%" y="-50%" width="200%" height="200%" filterUnits="objectBoundingBox" id="filter-1">
            <feOffset dx="0" dy="2" in="SourceAlpha" result="shadowOffsetOuter1"></feOffset>
            <feGaussianBlur stdDeviation="1.5" in="shadowOffsetOuter1" result="shadowBlurOuter1"></feGaussianBlur>
            <feColorMatrix values="0 0 0 0 0   0 0 0 0 0   0 0 0 0 0  0 0 0 0.25 0" type="matrix" in="shadowBlurOuter1" result="shadowMatrixOuter1"></feColorMatrix>
            <feMerge>
                <feMergeNode in="shadowMatrixOuter1"></feMergeNode>
                <feMergeNode in="SourceGraphic"></feMergeNode>
            </feMerge>
        </filter>
    </defs>
    <g id="Page-1" stroke="none" stroke-width="1" fill="none" fill-rule="evenodd">
        <g id="29---MVP" transform="translate(-449.000000, -238.000000)">
            <g id="Getting-Started" transform="translate(0.000000, 178.000000)">
                <g id="Row-of-Cards" transform="translate(364.000000, 35.000000)">
                    <g id="Card">
                        <g id="Radar" filter="url(#filter-1)" transform="translate(62.000000, 0.000000)">
                            <g id="Goal" transform="translate(26.000000, 26.000000)">
                                <g id="Group">
                                    <path d="M19.5,0 C8.72368421,0 0,8.72368421 0,19.5 C0,30.2763158 8.72368421,39 19.5,39 C30.2763158,39 39,30.2763158 39,19.5 C39,8.72368421 30.2763158,0 19.5,0 L19.5,0 L19.5,0 Z" id="Shape" fill="#FF3D00"></path>
                                    <path d="M19.5,4.10526316 C10.9815789,4.10526316 4.10526316,10.9815789 4.10526316,19.5 C4.10526316,28.0184211 10.9815789,34.8947368 19.5,34.8947368 C28.0184211,34.8947368 34.8947368,28.0184211 34.8947368,19.5 C34.8947368,10.9815789 28.0184211,4.10526316 19.5,4.10526316 L19.5,4.10526316 Z M19.5,30.7894737 C13.2394737,30.7894737 8.21052632,25.7605263 8.21052632,19.5 C8.21052632,13.2394737 13.2394737,8.21052632 19.5,8.21052632 C25.7605263,8.21052632 30.7894737,13.2394737 30.7894737,19.5 C30.7894737,25.7605263 25.7605263,30.7894737 19.5,30.7894737 L19.5,30.7894737 Z M19.5,12.3157895 C15.4973684,12.3157895 12.3157895,15.4973684 12.3157895,19.5 C12.3157895,23.5026316 15.4973684,26.6842105 19.5,26.6842105 C23.5026316,26.6842105 26.6842105,23.5026316 26.6842105,19.5 C26.6842105,15.4973684 23.5026316,12.3157895 19.5,12.3157895 L19.5,12.3157895 Z M19.5,22.5789474 C17.7552632,22.5789474 16.4210526,21.2447368 16.4210526,19.5 C16.4210526,17.7552632 17.7552632,16.4210526 19.5,16.4210526 C21.2447368,16.4210526 22.5789474,17.7552632 22.5789474,19.5 C22.5789474,21.2447368 21.2447368,22.5789474 19.5,22.5789474 L19.5,22.5789474 Z" id="Shape" fill="#FFFFFF"></path>
                                    <path d="M39,4.10526316 C39,4.10526316 38.3842105,6.46578947 36.7421053,8.00526316 C35.1,9.64736842 28.5315789,10.4684211 28.5315789,10.4684211 C28.5315789,10.4684211 29.3526316,3.79736842 30.9947368,2.25789474 C32.5342105,0.615789474 34.8947368,0 34.8947368,0 L34.8947368,4.10526316 L39,4.10526316 L39,4.10526316 Z" id="Shape" fill="#1976D2"></path>
                                    <path d="M38.6921053,0.307894737 C38.2815789,-0.102631579 37.6657895,-0.102631579 37.2552632,0.307894737 L18.7815789,18.7815789 C18.3710526,19.1921053 18.3710526,19.8078947 18.7815789,20.2184211 C18.9868421,20.4236842 19.2947368,20.5263158 19.5,20.5263158 C19.7052632,20.5263158 20.0131579,20.4236842 20.2184211,20.2184211 L38.6921053,1.74473684 C39.1026316,1.33421053 39.1026316,0.718421053 38.6921053,0.307894737 L38.6921053,0.307894737 Z" id="Shape" fill="#37474F"></path>
                                    <rect id="Rectangle-path" fill="#42A5F5" transform="translate(32.585932, 6.536980) rotate(45.000000) translate(-32.585932, -6.536980) " x="31.5596258" y="2.27781019" width="2.05261189" height="8.51833936"></rect>
                                </g>
                            </g>
                        </g>
                    </g>
                </g>
            </g>
        </g>
    </g>
</svg>