<?xml version="1.0" encoding="UTF-8"?>
<svg width="33px" height="45px" viewBox="0 0 33 45" version="1.1" xmlns="http://www.w3.org/2000/svg" xmlns:xlink="http://www.w3.org/1999/xlink">
    <!-- Generator: Sketch 41 (35326) - http://www.bohemiancoding.com/sketch -->
    <title>Idea</title>
    <desc>Created with Sketch.</desc>
    <defs>
        <filter x="-50%" y="-50%" width="200%" height="200%" filterUnits="objectBoundingBox" id="filter-1">
            <feOffset dx="0" dy="2" in="SourceAlpha" result="shadowOffsetOuter1"></feOffset>
            <feGaussianBlur stdDeviation="1.5" in="shadowOffsetOuter1" result="shadowBlurOuter1"></feGaussianBlur>
            <feColorMatrix values="0 0 0 0 0   0 0 0 0 0   0 0 0 0 0  0 0 0 0.25 0" type="matrix" in="shadowBlurOuter1" result="shadowMatrixOuter1"></feColorMatrix>
            <feMerge>
                <feMergeNode in="shadowMatrixOuter1"></feMergeNode>
                <feMergeNode in="SourceGraphic"></feMergeNode>
            </feMerge>
        </filter>
    </defs>
    <g id="Page-1" stroke="none" stroke-width="1" fill="none" fill-rule="evenodd">
        <g id="29---MVP" transform="translate(-450.000000, -1401.000000)">
            <g id="Implementation" transform="translate(0.000000, 1343.000000)">
                <g id="Row-of-Cards" transform="translate(359.000000, 33.000000)">
                    <g id="Card">
                        <g id="Radar" filter="url(#filter-1)" transform="translate(62.000000, 0.000000)">
                            <g id="Idea" transform="translate(32.000000, 26.000000)">
                                <g id="Group">
                                    <path d="M26.7090909,13.3939394 C26.7090909,5.50727273 19.9490909,-0.740606061 11.8575758,0.181212121 C5.71212121,0.898181818 0.795757576,5.81454545 0.181212121,11.96 C-0.330909091,16.6715152 1.61515152,20.8709091 4.89272727,23.5339394 C6.32666667,24.7630303 7.24848485,26.5042424 7.24848485,28.450303 L7.24848485,28.7575758 L19.5393939,28.7575758 L19.5393939,28.6551515 C19.5393939,26.8115152 20.3587879,24.9678788 21.7927273,23.7387879 C24.7630303,21.2806061 26.7090909,17.5933333 26.7090909,13.3939394 L26.7090909,13.3939394 Z" id="Shape" fill="#FBC02D"></path>
                                    <path d="M20.1539394,11.550303 L17.0812121,9.50181818 C16.7739394,9.2969697 16.2618182,9.2969697 15.9545455,9.50181818 L13.3939394,11.1406061 L10.9357576,9.50181818 C10.6284848,9.2969697 10.1163636,9.2969697 9.80909091,9.50181818 L6.73636364,11.550303 C6.53151515,11.7551515 6.32666667,11.96 6.32666667,12.2672727 C6.32666667,12.5745455 6.32666667,12.8818182 6.53151515,13.0866667 L10.4236364,17.9006061 L10.4236364,28.7575758 L12.4721212,28.7575758 L12.4721212,17.4909091 C12.4721212,17.2860606 12.369697,17.0812121 12.2672727,16.8763636 L8.88727273,12.6769697 L10.4236364,11.6527273 L12.8818182,13.2915152 C13.1890909,13.4963636 13.7012121,13.4963636 14.0084848,13.2915152 L16.4666667,11.6527273 L18.0030303,12.6769697 L14.6230303,16.8763636 C14.5206061,17.0812121 14.4181818,17.2860606 14.4181818,17.4909091 L14.4181818,28.7575758 L16.4666667,28.7575758 L16.4666667,17.9006061 L20.3587879,13.0866667 C20.5636364,12.8818182 20.6660606,12.5745455 20.5636364,12.2672727 C20.4612121,11.96 20.3587879,11.6527273 20.1539394,11.550303 L20.1539394,11.550303 Z" id="Shape" fill="#FFF59D"></path>
                                    <ellipse id="Oval" fill="#5C6BC0" cx="13.3939394" cy="35.9272727" rx="3.07272727" ry="3.07272727"></ellipse>
                                    <path d="M15.4424242,36.9515152 L11.3454545,36.9515152 C9.09212121,36.9515152 7.24848485,35.1078788 7.24848485,32.8545455 L7.24848485,27.7333333 L19.5393939,27.7333333 L19.5393939,32.8545455 C19.5393939,35.1078788 17.6957576,36.9515152 15.4424242,36.9515152 L15.4424242,36.9515152 Z" id="Shape" fill="#9FA8DA"></path>
                                    <g transform="translate(7.248485, 28.757576)" id="Shape" fill="#5C6BC0">
                                        <path d="M12.2909091,4.0969697 L0.40969697,5.73575758 C0.716969697,6.45272727 1.33151515,7.16969697 2.04848485,7.57939394 L11.6763636,6.24787879 C12.0860606,5.63333333 12.2909091,4.91636364 12.2909091,4.0969697 L12.2909091,4.0969697 Z"></path>
                                        <polygon points="0 1.74121212 0 3.78969697 12.2909091 2.04848485 12.2909091 0"></polygon>
                                    </g>
                                </g>
                            </g>
                        </g>
                    </g>
                </g>
            </g>
        </g>
    </g>
</svg>