<?xml version="1.0" encoding="UTF-8"?>
<svg width="27px" height="27px" viewBox="0 0 27 27" version="1.1" xmlns="http://www.w3.org/2000/svg" xmlns:xlink="http://www.w3.org/1999/xlink">
    <!-- Generator: Sketch 41 (35326) - http://www.bohemiancoding.com/sketch -->
    <title>Group</title>
    <desc>Created with Sketch.</desc>
    <defs></defs>
    <g id="Page-1" stroke="none" stroke-width="1" fill="none" fill-rule="evenodd">
        <g id="30---Activity-Plan" transform="translate(-205.000000, -225.000000)">
            <g id="Modal">
                <g id="Group-2" transform="translate(178.000000, 122.000000)">
                    <g id="Phase" transform="translate(27.000000, 97.000000)">
                        <g id="Waning-Crescent" transform="translate(0.000000, 6.000000)">
                            <g id="Group">
                                <circle id="Oval" fill="#FFE082" cx="13.5" cy="13.5" r="13.5"></circle>
                                <path d="M13.5,0 C13.5,0 6.75,4.05 6.75,13.5 C6.75,13.511475 6.750675,13.522275 6.750675,13.53375 C7.52085,13.691025 8.1,14.371425 8.1,15.1875 C8.1,15.899625 7.657875,16.505775 7.0335,16.7535 C8.313975,23.887575 13.5,27 13.5,27 C20.955375,27 27,20.955375 27,13.5 C27,6.044625 20.955375,0 13.5,0 L13.5,0 Z" id="Shape" fill="#5E35B1"></path>
                                <g transform="translate(10.125000, 4.725000)" id="Shape" fill="#9575CD">
                                    <path d="M0.3375,0.3375 C1.642275,0.3375 2.7,1.395225 2.7,2.7 C2.7,4.004775 1.642275,5.0625 0.3375,5.0625 C0.2241,5.0625 0.1161,5.04495 0.00675,5.029425 C0.404325,5.258925 0.857925,5.4 1.35,5.4 C2.841075,5.4 4.05,4.191075 4.05,2.7 C4.05,1.208925 2.841075,0 1.35,0 C0.857925,0 0.404325,0.141075 0.00675,0.370575 C0.1161,0.35505 0.2241,0.3375 0.3375,0.3375 L0.3375,0.3375 Z"></path>
                                    <path d="M11.475,13.8375 C11.475,14.5287 11.05785,15.122025 10.4625,15.382575 C10.669725,15.473025 10.8972,15.525 11.1375,15.525 C12.069675,15.525 12.825,14.769675 12.825,13.8375 C12.825,12.905325 12.069675,12.15 11.1375,12.15 C10.8972,12.15 10.669725,12.201975 10.4625,12.292425 C11.05785,12.55365 11.475,13.1463 11.475,13.8375 L11.475,13.8375 Z"></path>
                                    <path d="M2.7,14.5125 C2.7,15.581025 1.98585,16.4727 1.0125,16.76565 C1.22715,16.83045 1.45125,16.875 1.6875,16.875 C2.992275,16.875 4.05,15.817275 4.05,14.5125 C4.05,13.207725 2.992275,12.15 1.6875,12.15 C1.45125,12.15 1.22715,12.19455 1.0125,12.25935 C1.98585,12.5523 2.7,13.443975 2.7,14.5125 L2.7,14.5125 Z"></path>
                                </g>
                            </g>
                        </g>
                    </g>
                </g>
            </g>
        </g>
    </g>
</svg>