<?xml version="1.0" encoding="UTF-8"?>
<svg width="21px" height="23px" viewBox="0 0 21 23" version="1.1" xmlns="http://www.w3.org/2000/svg" xmlns:xlink="http://www.w3.org/1999/xlink">
    <!-- Generator: Sketch 41 (35326) - http://www.bohemiancoding.com/sketch -->
    <title>Share</title>
    <desc>Created with Sketch.</desc>
    <defs></defs>
    <g id="Page-1" stroke="none" stroke-width="1" fill="none" fill-rule="evenodd">
        <g id="30---Activity-Plan" transform="translate(-1301.000000, -31.000000)" fill="#FFFFFF">
            <g id="Modal">
                <g id="Print" transform="translate(1282.000000, 20.000000)">
                    <g id="Icon" transform="translate(3.000000, 11.000000)">
                        <g id="Share" transform="translate(16.000000, 0.000000)">
                            <path d="M17.5,0 C15.5670037,0 14,1.54461767 14,3.45 C14,3.67577478 14.0309108,3.88320051 14.0729167,4.096875 L5.76041667,8.8765625 C5.14985952,8.36492014 4.36416318,8.05 3.5,8.05 C1.56700343,8.05 0,9.5946179 0,11.5 C0,13.4053821 1.56700343,14.95 3.5,14.95 C4.36416318,14.95 5.14985952,14.6350794 5.76041667,14.1234375 L14.0729167,18.903125 C14.0309108,19.1167996 14,19.3242251 14,19.55 C14,21.4553821 15.5670037,23 17.5,23 C19.4329963,23 21,21.4553821 21,19.55 C21,17.6446179 19.4329963,16.1 17.5,16.1 C16.6358372,16.1 15.8501408,16.4149206 15.2395833,16.9265625 L6.92708333,12.146875 C6.96908858,11.9332004 7,11.7257749 7,11.5 C7,11.2742251 6.96908858,11.0667996 6.92708333,10.853125 L15.2395833,6.0734375 C15.8501408,6.58507986 16.6358372,6.9 17.5,6.9 C19.4329963,6.9 21,5.35538233 21,3.45 C21,1.54461767 19.4329963,0 17.5,0 L17.5,0 Z" id="Shape"></path>
                        </g>
                    </g>
                </g>
            </g>
        </g>
    </g>
</svg>