<?xml version="1.0" encoding="UTF-8"?>
<svg width="44px" height="42px" viewBox="0 0 44 42" version="1.1" xmlns="http://www.w3.org/2000/svg" xmlns:xlink="http://www.w3.org/1999/xlink">
    <!-- Generator: Sketch 41 (35326) - http://www.bohemiancoding.com/sketch -->
    <title>Repeat</title>
    <desc>Created with Sketch.</desc>
    <defs>
        <filter x="-50%" y="-50%" width="200%" height="200%" filterUnits="objectBoundingBox" id="filter-1">
            <feOffset dx="0" dy="2" in="SourceAlpha" result="shadowOffsetOuter1"></feOffset>
            <feGaussianBlur stdDeviation="1.5" in="shadowOffsetOuter1" result="shadowBlurOuter1"></feGaussianBlur>
            <feColorMatrix values="0 0 0 0 0   0 0 0 0 0   0 0 0 0 0  0 0 0 0.25 0" type="matrix" in="shadowBlurOuter1" result="shadowMatrixOuter1"></feColorMatrix>
            <feMerge>
                <feMergeNode in="shadowMatrixOuter1"></feMergeNode>
                <feMergeNode in="SourceGraphic"></feMergeNode>
            </feMerge>
        </filter>
    </defs>
    <g id="Page-1" stroke="none" stroke-width="1" fill="none" fill-rule="evenodd">
        <g id="29---MVP" transform="translate(-978.000000, -990.000000)">
            <g id="Project-Planning" transform="translate(0.000000, 928.000000)">
                <g id="Card" transform="translate(892.000000, 35.000000)">
                    <g id="Radar" filter="url(#filter-1)" transform="translate(62.000000, 0.000000)">
                        <g id="Repeat" transform="translate(29.000000, 28.000000)">
                            <g id="Group">
                                <polygon id="Shape" fill="#F25B6D" points="20 12 12 6.001 20 0"></polygon>
                                <polygon id="Shape" fill="#F25B6D" points="14 36 22 30.001 14 24"></polygon>
                                <path d="M19,30 L8,30 C3.582,30 0,26.419 0,22 L0,14 C0,9.581 4.582,6 9,6" id="Shape" stroke="#F15B6D" stroke-width="4"></path>
                                <path d="M15,6 L26,6 C30.418,6 34,9.581 34,14 L34,22 C34,26.419 30.418,30 26,30" id="Shape" stroke="#F15B6D" stroke-width="4"></path>
                            </g>
                        </g>
                    </g>
                </g>
            </g>
        </g>
    </g>
</svg>