<?xml version="1.0" encoding="UTF-8"?>
<svg width="42px" height="42px" viewBox="0 0 42 42" version="1.1" xmlns="http://www.w3.org/2000/svg" xmlns:xlink="http://www.w3.org/1999/xlink">
    <!-- Generator: Sketch 41 (35326) - http://www.bohemiancoding.com/sketch -->
    <title>World Map</title>
    <desc>Created with Sketch.</desc>
    <defs>
        <filter x="-50%" y="-50%" width="200%" height="200%" filterUnits="objectBoundingBox" id="filter-1">
            <feOffset dx="0" dy="2" in="SourceAlpha" result="shadowOffsetOuter1"></feOffset>
            <feGaussianBlur stdDeviation="1.5" in="shadowOffsetOuter1" result="shadowBlurOuter1"></feGaussianBlur>
            <feColorMatrix values="0 0 0 0 0   0 0 0 0 0   0 0 0 0 0  0 0 0 0.25 0" type="matrix" in="shadowBlurOuter1" result="shadowMatrixOuter1"></feColorMatrix>
            <feMerge>
                <feMergeNode in="shadowMatrixOuter1"></feMergeNode>
                <feMergeNode in="SourceGraphic"></feMergeNode>
            </feMerge>
        </filter>
    </defs>
    <g id="Page-1" stroke="none" stroke-width="1" fill="none" fill-rule="evenodd">
        <g id="29---MVP" transform="translate(-451.000000, -990.000000)">
            <g id="Project-Planning" transform="translate(0.000000, 928.000000)">
                <g id="Card" transform="translate(364.000000, 35.000000)">
                    <g id="Radar" filter="url(#filter-1)" transform="translate(62.000000, 0.000000)">
                        <g id="World-Map" transform="translate(28.000000, 28.000000)">
                            <g id="Group">
                                <polygon id="Shape" fill="#FFECB3" points="24 4 12 0 0 4 0 36 12 32 24 36 36 32 36 0"></polygon>
                                <polygon id="Shape" fill="#FFE082" points="12 0 12 32 24 36 24 4"></polygon>
                                <path d="M11.443,8.146 C11.583,8.228 11.669,8.396 11.672,8.683 C11.685,9.664 11.449,10.611 11.4,11.577 C11.379,11.99 11.553,12.289 11.726,12.662 C11.987,13.221 11.644,13.586 11.703,14.146 C11.719,14.287 11.843,14.343 11.845,14.495 C11.862,15.328 10.656,17.121 9.576,16.899 C8.93,16.766 9.545,15.693 9.23,15.228 C9.11,15.056 8.263,14.794 8.007,14.8 C7.158,14.824 7.716,15.747 7.882,16.099 C8.219,16.812 8.339,17.57 8.811,18.27 C8.558,18.046 8.264,17.861 7.912,17.718 C7.432,17.521 7.011,17.729 6.595,17.539 C5.979,17.261 5.932,16.587 5.612,16.099 C5.308,15.636 4.466,15.623 4.067,15.107 C3.676,14.601 3.772,13.976 3.956,13.423 C4.174,12.769 4.47,12.297 4.93,11.731 C5.251,11.339 5.702,10.759 5.118,10.394 C4.576,10.052 4.011,10.23 3.526,10.494 C3.012,10.773 2.764,10.785 2.619,10.176 C2.473,9.571 3.291,9.141 3.703,8.776 C5.204,7.454 7.44,8.106 8.694,9.349 C8.768,9.422 10.758,7.745 11.443,8.146 L11.443,8.146 Z M6.23,21.928 C6.352,22.616 7.147,22.195 7.363,22.726 C7.534,23.148 7.058,23.715 7.039,24.112 C8.181,24.37 8.833,25.305 8.828,26.454 C8.819,28.105 9.371,29.815 10.677,30.776 C10.764,30.443 10.864,30.091 10.908,29.732 C11.077,28.33 10.796,27.095 11.867,25.948 C12.329,25.454 12.237,25.259 12.201,24.637 C12.182,24.321 12.246,23.566 12.503,23.395 C12.825,23.548 13.476,23.633 13.763,23.381 C13.952,23.211 14.172,22.254 14.211,21.996 C14.337,21.188 14.051,20.543 13.58,19.928 C13.193,19.422 12.592,18.992 11.966,18.864 C11.348,18.736 10.679,18.82 10.097,18.539 C9.824,18.405 9.591,18.222 9.31,18.096 C8.975,17.947 8.316,17.835 8.064,17.572 C8.435,17.959 8.702,18.529 8.691,19.072 C8.68,19.638 8.346,19.711 7.914,19.976 C7.305,20.348 6.075,21.049 6.23,21.928 L6.23,21.928 Z M14.664,6.428 C13.138,6.054 12.031,7.324 12.485,8.8 C13.229,11.221 14.776,7.415 14.664,6.428 L14.664,6.428 Z M14.075,12.863 C14.109,13.508 14.313,14.134 14.925,14.275 C15.321,14.365 15.768,14.195 16.009,13.77 C16.349,13.169 15.417,11.574 16.467,11.651 C17.221,11.707 17.252,12.874 17.486,13.379 C17.549,13.41 17.613,13.41 17.677,13.379 C17.85,12.889 17.753,12.326 17.798,11.827 C18.685,11.586 19.172,12.896 19.377,13.546 C19.547,14.087 19.894,14.268 19.001,14.478 C18.52,14.592 18.171,14.483 17.847,14.095 C17.308,14.46 17.017,14.864 16.43,15.166 C14.779,16.018 14.34,18.517 15.215,20.212 C15.815,21.375 17.202,20.316 17.923,19.962 C17.891,20.615 18.469,21.27 18.67,21.881 C19.252,23.645 18.833,25.327 18.821,27.138 C18.819,27.503 18.909,28.893 19.374,28.977 C19.908,29.073 20.37,27.428 20.487,27.045 C20.973,25.464 20.98,23.832 21.858,22.367 C22.197,21.799 22.812,21.324 22.53,20.607 C22.246,19.887 20.811,19.747 20.967,18.81 C20.924,19.076 22.394,20.435 22.726,20.47 C24.277,20.633 22.814,18.568 23.28,18.046 C24.031,17.21 24.58,19.28 24.621,19.673 C24.739,20.743 24.515,21.807 24.498,22.876 C24.492,23.323 24.369,25.165 25.208,24.9 C25.861,24.693 25.541,23.266 25.629,22.766 C25.71,22.303 26.199,20.545 26.597,20.334 C27.468,19.875 27.936,21.838 29.006,21.797 C29.261,20.889 29.033,20.453 29.729,19.793 C30.241,19.307 31.024,18.993 31.327,18.266 C31.563,17.705 31.641,16.564 31.477,15.981 C31.167,14.872 30.112,15.316 29.124,15.06 C29.08,14.491 29.672,14.217 29.695,13.625 C29.708,13.33 29.24,13.328 29.289,12.955 C29.32,12.722 29.669,12.348 29.819,12.154 C30.341,11.466 31.079,11.045 31.838,11.786 C31.94,11.291 31.832,10.713 31.248,10.718 C31.207,10.106 30.798,8.676 30.146,8.356 C29.535,8.051 29.507,8.486 29.01,8.965 C28.462,9.496 27.78,9.839 27.317,10.356 C26.888,10.836 26.008,11.997 25.407,11.538 C25.085,11.29 25.158,10.407 24.918,10.044 C24.599,9.559 24.393,9.472 23.799,9.383 C23.863,9.275 23.877,9.006 23.955,8.882 C23.773,8.945 23.451,8.884 23.27,8.946 C23.242,8.19 24.399,8.161 24.664,7.643 C24.159,7.602 23.692,7.586 23.252,7.873 C22.897,8.105 22.814,8.643 22.48,8.803 C21.631,9.219 19.597,7.811 18.664,7.607 C17.315,7.311 16.597,7.879 16.06,9.124 C15.705,9.056 15.282,8.939 15.003,9.226 C15.214,9.505 15.529,9.638 15.884,9.687 C15.912,9.815 15.915,9.968 15.884,10.097 C15.588,10.161 14.834,10.649 14.652,10.82 C14.26,11.189 14.202,11.336 14.124,11.886 C14.085,12.17 14.056,12.518 14.075,12.863 L14.075,12.863 Z M27.863,25.355 C27.509,26.058 26.776,28.72 27.685,28.9 C28.785,29.115 29.238,27.327 30.327,27.589 C30.424,28.11 30.822,28.245 31.123,27.818 C31.311,27.553 31.101,26.708 31.057,26.421 C30.902,25.376 30.698,24.743 30.947,23.681 C30.739,23.86 30.174,24.746 29.971,24.806 C29.119,25.06 29.6,24.038 29.823,23.705 C28.3,24.228 27.123,26.124 27.245,27.749 L27.863,25.355 Z" id="Shape" fill="#BC7937"></path>
                            </g>
                        </g>
                    </g>
                </g>
            </g>
        </g>
    </g>
</svg>