<?xml version="1.0" encoding="UTF-8"?>
<svg width="26px" height="26px" viewBox="0 0 26 26" version="1.1" xmlns="http://www.w3.org/2000/svg" xmlns:xlink="http://www.w3.org/1999/xlink">
    <!-- Generator: Sketch 41 (35326) - http://www.bohemiancoding.com/sketch -->
    <title>Shape</title>
    <desc>Created with Sketch.</desc>
    <defs></defs>
    <g id="Page-1" stroke="none" stroke-width="1" fill="none" fill-rule="evenodd">
        <g id="30---Activity-Plan" transform="translate(-752.000000, -1566.000000)" fill="#4A4A4A">
            <g id="Modal">
                <g id="Print" transform="translate(735.000000, 1556.000000)">
                    <g id="Icon" transform="translate(3.000000, 10.000000)">
                        <path d="M18.7946154,0 L18.7946154,0.501694915 L18.7946154,7.02372881 L15.7776923,7.02372881 C14.9228974,7.02372881 14.2692308,7.6759322 14.2692308,8.52881356 L14.2692308,19.0644068 C14.2692308,19.9172881 14.9228974,20.5694915 15.7776923,20.5694915 L18.7946154,20.5694915 L18.7946154,25.0847458 L34.8848718,25.0847458 L34.8848718,20.5694915 L37.9017949,20.5694915 C38.7565897,20.5694915 39.4102564,19.9172881 39.4102564,19.0644068 L39.4102564,8.52881356 C39.4102564,7.6759322 38.7565897,7.02372881 37.9017949,7.02372881 L34.8848718,7.02372881 L34.8848718,0.501694915 L34.8848718,0 L34.3820513,0 L19.2974359,0 L18.7946154,0 L18.7946154,0 Z M19.8002564,1.00338983 L33.8792308,1.00338983 L33.8792308,7.02372881 L19.8002564,7.02372881 L19.8002564,1.00338983 L19.8002564,1.00338983 Z M35.8905128,9.53220339 C36.4436154,9.53220339 36.8961538,9.98372881 36.8961538,10.5355932 C36.8961538,11.0874576 36.4436154,11.5389831 35.8905128,11.5389831 C35.3374103,11.5389831 34.8848718,11.0874576 34.8848718,10.5355932 C34.8848718,9.98372881 35.3374103,9.53220339 35.8905128,9.53220339 L35.8905128,9.53220339 Z M19.8002564,15.0508475 L33.8792308,15.0508475 L33.8792308,24.0813559 L19.8002564,24.0813559 L19.8002564,15.0508475 L19.8002564,15.0508475 Z M21.8115385,17.0576271 C21.5098462,17.0576271 21.3087179,17.2583051 21.3087179,17.559322 C21.3087179,17.860339 21.5098462,18.0610169 21.8115385,18.0610169 L31.8679487,18.0610169 C32.169641,18.0610169 32.3707692,17.860339 32.3707692,17.559322 C32.3707692,17.2583051 32.169641,17.0576271 31.8679487,17.0576271 L21.8115385,17.0576271 L21.8115385,17.0576271 Z M21.8115385,19.0644068 C21.5098462,19.0644068 21.3087179,19.2650847 21.3087179,19.5661017 C21.3087179,19.8671186 21.5098462,20.0677966 21.8115385,20.0677966 L29.8566667,20.0677966 C30.158359,20.0677966 30.3594872,19.8671186 30.3594872,19.5661017 C30.3594872,19.2650847 30.158359,19.0644068 29.8566667,19.0644068 L21.8115385,19.0644068 L21.8115385,19.0644068 Z M21.8115385,21.0711864 C21.5098462,21.0711864 21.3087179,21.2718644 21.3087179,21.5728814 C21.3087179,21.8738983 21.5098462,22.0745763 21.8115385,22.0745763 L31.8679487,22.0745763 C32.169641,22.0745763 32.3707692,21.8738983 32.3707692,21.5728814 C32.3707692,21.2718644 32.169641,21.0711864 31.8679487,21.0711864 L21.8115385,21.0711864 L21.8115385,21.0711864 Z" id="Shape"></path>
                    </g>
                </g>
            </g>
        </g>
    </g>
</svg>