<?xml version="1.0" encoding="UTF-8"?>
<svg width="35px" height="46px" viewBox="0 0 35 46" version="1.1" xmlns="http://www.w3.org/2000/svg" xmlns:xlink="http://www.w3.org/1999/xlink">
    <!-- Generator: Sketch 41 (35326) - http://www.bohemiancoding.com/sketch -->
    <title>Campfire</title>
    <desc>Created with Sketch.</desc>
    <defs>
        <filter x="-50%" y="-50%" width="200%" height="200%" filterUnits="objectBoundingBox" id="filter-1">
            <feOffset dx="0" dy="2" in="SourceAlpha" result="shadowOffsetOuter1"></feOffset>
            <feGaussianBlur stdDeviation="1.5" in="shadowOffsetOuter1" result="shadowBlurOuter1"></feGaussianBlur>
            <feColorMatrix values="0 0 0 0 0   0 0 0 0 0   0 0 0 0 0  0 0 0 0.25 0" type="matrix" in="shadowBlurOuter1" result="shadowMatrixOuter1"></feColorMatrix>
            <feMerge>
                <feMergeNode in="shadowMatrixOuter1"></feMergeNode>
                <feMergeNode in="SourceGraphic"></feMergeNode>
            </feMerge>
        </filter>
    </defs>
    <g id="Page-1" stroke="none" stroke-width="1" fill="none" fill-rule="evenodd">
        <g id="29---MVP" transform="translate(-713.000000, -1401.000000)">
            <g id="Implementation" transform="translate(0.000000, 1343.000000)">
                <g id="Row-of-Cards" transform="translate(359.000000, 33.000000)">
                    <g id="Card" transform="translate(264.000000, 0.000000)">
                        <g id="Radar" filter="url(#filter-1)" transform="translate(62.000000, 0.000000)">
                            <g id="Campfire" transform="translate(31.000000, 25.000000)">
                                <g id="Group">
                                    <rect id="Rectangle-path" fill="#5D4037" transform="translate(14.529135, 35.514623) rotate(14.536509) translate(-14.529135, -35.514623) " x="0.58246117" y="33.5150985" width="27.8933487" height="3.99904999"></rect>
                                    <path d="M1.03,39.014 L28.03,32.014" id="Shape" stroke="#8D6E63" stroke-width="4"></path>
                                    <g transform="translate(2.000000, 32.000000)" id="Shape" fill="#3E2723">
                                        <polygon points="8.545 0.415 0.577 2.48 4.563 3.514 12.53 1.448"></polygon>
                                        <polygon points="24.483 4.547 20.498 3.514 12.53 5.579 16.516 6.612"></polygon>
                                    </g>
                                    <path d="M25.037,22.949 C25.036,22.826 25.027,22.717 25.023,22.599 C25.024,22.548 25.03,22.499 25.03,22.449 C25.03,19.967 24.164,17.69 22.724,15.893 C22.62,15.571 22.511,15.23 22.568,14.855 C23,12 23.655,8.588 20.037,6 C20.393,8.363 20.037,10.949 18.037,10.949 C16.037,10.949 17.951,7.594 16.037,4.543 C15.037,2.949 13.037,0.949 10,1 C14.068,3.387 12.324,10.981 11.037,11.949 C9.015,13.474 9.037,9 6.037,9 C7.239,9.564 6.655,13.494 5.953,14.981 C5.497,15.952 4.557,17.911 4.189,20.687 C4.092,21.261 4.03,21.847 4.03,22.449 C4.03,22.521 4.04,22.589 4.042,22.66 C4.041,22.759 4.03,22.848 4.03,22.949 C4.03,22.966 4.051,22.979 4.061,22.995 C4.38,28.475 9.417,31.949 15.03,31.949 C20.658,31.949 24.768,28.457 25.008,22.95 C25.018,22.95 25.037,22.949 25.037,22.949 L25.037,22.949 Z" id="Shape" fill="#FF3D00"></path>
                                    <path d="M16.996,19.937 C17.551,21.654 17.471,22.937 15.996,22.937 C13.933,22.937 13.488,21.64 13.961,20.705 C16.07,16.577 15.607,15.974 13.996,13.937 C14.943,18.502 9.989,18.991 9.989,24.991 C9.989,27.753 12.227,29.991 14.989,29.991 C17.751,29.991 19.989,27.753 19.989,24.991 C20.117,23.748 19.393,21.417 16.996,19.937 L16.996,19.937 Z" id="Shape" fill="#FDD835"></path>
                                </g>
                            </g>
                        </g>
                    </g>
                </g>
            </g>
        </g>
    </g>
</svg>