<?xml version="1.0" encoding="UTF-8"?>
<svg width="46px" height="37px" viewBox="0 0 46 37" version="1.1" xmlns="http://www.w3.org/2000/svg" xmlns:xlink="http://www.w3.org/1999/xlink">
    <!-- Generator: Sketch 41 (35326) - http://www.bohemiancoding.com/sketch -->
    <title>Handshake</title>
    <desc>Created with Sketch.</desc>
    <defs>
        <filter x="-50%" y="-50%" width="200%" height="200%" filterUnits="objectBoundingBox" id="filter-1">
            <feOffset dx="0" dy="2" in="SourceAlpha" result="shadowOffsetOuter1"></feOffset>
            <feGaussianBlur stdDeviation="1.5" in="shadowOffsetOuter1" result="shadowBlurOuter1"></feGaussianBlur>
            <feColorMatrix values="0 0 0 0 0   0 0 0 0 0   0 0 0 0 0  0 0 0 0.25 0" type="matrix" in="shadowBlurOuter1" result="shadowMatrixOuter1"></feColorMatrix>
            <feMerge>
                <feMergeNode in="shadowMatrixOuter1"></feMergeNode>
                <feMergeNode in="SourceGraphic"></feMergeNode>
            </feMerge>
        </filter>
    </defs>
    <g id="Page-1" stroke="none" stroke-width="1" fill="none" fill-rule="evenodd">
        <g id="29---MVP" transform="translate(-449.000000, -582.000000)">
            <g id="Getting-Started" transform="translate(0.000000, 178.000000)">
                <g id="Row-of-Cards" transform="translate(364.000000, 35.000000)">
                    <g id="Card" transform="translate(0.000000, 340.000000)">
                        <g id="Radar" filter="url(#filter-1)" transform="translate(62.000000, 0.000000)">
                            <g id="Handshake" transform="translate(26.000000, 30.000000)">
                                <g id="Group">
                                    <path d="M32.8,18.2 L21.5,6.9 L24,5 L22,3 L8.5,3 L0,1 L0,17 L5.9,18 L17.9,30.2 C18.7,31 19.9,31 20.7,30.2 L20.7,30.2 C21.5,29.4 21.5,28.2 20.7,27.4 L20.6,27.3 L20.6,27.3 L20.6,27.3 L20.6,27.3 L20.6,27.3 C20.4,27.1 20.4,26.8 20.6,26.6 C20.8,26.4 21.1,26.4 21.3,26.6 L21.3,26.6 L21.3,26.6 L21.3,26.6 L21.3,26.6 L22.1,27.4 C22.9,28.2 24.1,28.2 24.9,27.4 L24.9,27.4 C25.7,26.6 25.7,25.4 24.9,24.6 L24.6,24.3 L24.6,24.3 C24.4,24.1 24.4,23.8 24.6,23.6 C24.8,23.4 25.1,23.4 25.3,23.6 L25.3,23.6 L26.3,24.6 C27.1,25.4 28.3,25.4 29.1,24.6 L29.1,24.6 C29.9,23.8 29.9,22.6 29.1,21.8 L28.8,21.5 C28.6,21.3 28.6,21 28.8,20.8 C29,20.6 29.3,20.6 29.5,20.8 L29.5,20.8 L29.8,21.1 C30.6,21.9 31.8,21.9 32.6,21.1 L32.6,21.1 C33.6,20.3 33.6,19 32.8,18.2 L32.8,18.2 Z" id="Shape" fill="#80DAE5"></path>
                                    <g transform="translate(4.000000, 0.000000)" id="Shape" fill="#006875">
                                        <path d="M19.4,8.9 L14.7,10.7 C11.9,11.8 8.8,11.1 6.8,8.9 L6.8,8.9 C6.4,8.5 6.5,7.8 7.1,7.5 L20.4,1 C22,0.2 23.9,0.4 25.3,1.4 L25.7,1.7 C26.8,2.5 28.3,2.7 29.6,2.4 L36,1 L36,17 L30.1,18 L29.3,18.8 L19.4,8.9 L19.4,8.9 Z"></path>
                                        <path d="M10,29 L10,29 C10.8,29.8 12,29.8 12.8,29 L13.5,28.3 C14.3,27.5 14.3,26.3 13.5,25.5 L13.5,25.5 C12.7,24.7 11.5,24.7 10.7,25.5 L10,26.2 C9.2,27 9.2,28.2 10,29 L10,29 Z"></path>
                                        <path d="M7.1,26.2 L7.1,26.2 C7.9,27 9.1,27 9.9,26.2 L10.6,25.5 C11.4,24.7 11.4,23.5 10.6,22.7 L10.6,22.7 C9.8,21.9 8.6,21.9 7.8,22.7 L7.1,23.4 C6.4,24.1 6.4,25.4 7.1,26.2 L7.1,26.2 Z"></path>
                                        <path d="M4.3,23.4 L4.3,23.4 C5.1,24.2 6.3,24.2 7.1,23.4 L7.8,22.7 C8.6,21.9 8.6,20.7 7.8,19.9 L7.8,19.9 C7,19.1 5.8,19.1 5,19.9 L4.3,20.6 C3.5,21.3 3.5,22.6 4.3,23.4 L4.3,23.4 Z"></path>
                                        <path d="M1.5,20.5 L1.5,20.5 C2.3,21.3 3.5,21.3 4.3,20.5 L5,19.8 C5.8,19 5.8,17.8 5,17 L5,17 C4.2,16.2 3,16.2 2.2,17 L1.5,17.7 C0.7,18.5 0.7,19.7 1.5,20.5 L1.5,20.5 Z"></path>
                                    </g>
                                    <g transform="translate(6.000000, 17.000000)" id="Shape" fill="#80DAE5">
                                        <path d="M10.5,10.9 L9,9.5 L9.4,9.1 C9.8,8.7 10.3,8.7 10.7,9.1 L10.8,9.2 C11.2,9.6 11.2,10.1 10.8,10.5 L10.5,10.9 L10.5,10.9 Z"></path>
                                        <path d="M7.6,8.1 L6.2,6.7 L6.6,6.3 C7,5.9 7.5,5.9 7.9,6.3 L8,6.4 C8.4,6.8 8.4,7.3 8,7.7 L7.6,8.1 L7.6,8.1 Z"></path>
                                        <path d="M4.8,5.3 L3.4,3.9 L3.8,3.5 C4.2,3.1 4.7,3.1 5.1,3.5 L5.2,3.6 C5.6,4 5.6,4.5 5.2,4.9 L4.8,5.3 L4.8,5.3 Z"></path>
                                        <path d="M2,2.5 L0.6,1 L1,0.6 C1.4,0.2 1.9,0.2 2.3,0.6 L2.4,0.7 C2.8,1.1 2.8,1.6 2.4,2 L2,2.5 L2,2.5 Z"></path>
                                    </g>
                                </g>
                            </g>
                        </g>
                    </g>
                </g>
            </g>
        </g>
    </g>
</svg>